<?xml version="1.0" standalone="no"?>
<!DOCTYPE svg PUBLIC "-//W3C//DTD SVG 20010904//EN"
 "http://www.w3.org/TR/2001/REC-SVG-20010904/DTD/svg10.dtd">
<svg version="1.0" xmlns="http://www.w3.org/2000/svg"
 width="410.000000pt" height="410.000000pt" viewBox="0 0 410.000000 410.000000"
 preserveAspectRatio="xMidYMid meet">
<metadata>
Created by potrace 1.11, written by Peter Selinger 2001-2013
</metadata>
<g transform="translate(0.000000,410.000000) scale(0.100000,-0.100000)"
fill="#000000" stroke="none">
<path d="M1947 3774 c-1 -1 -22 -5 -47 -8 -91 -12 -105 -16 -225 -63 -49 -19
-103 -44 -119 -56 -25 -18 -45 -21 -129 -22 -69 0 -102 -4 -105 -13 -2 -7 -9
-12 -16 -12 -25 0 -104 -44 -191 -108 -145 -105 -165 -128 -225 -257 -29 -63
-58 -115 -65 -115 -7 0 -24 9 -38 20 -14 11 -28 20 -32 20 -3 0 -23 11 -43 25
-20 14 -40 25 -45 25 -10 0 0 -85 19 -170 27 -116 68 -211 114 -265 10 -11 21
-42 25 -68 3 -27 9 -59 11 -70 3 -12 7 -33 10 -47 2 -14 6 -35 9 -46 5 -23 -3
-24 -135 -8 -30 3 -71 8 -90 10 -19 2 -57 6 -85 9 -40 4 -59 1 -94 -17 -39
-21 -46 -29 -62 -81 -17 -56 -16 -59 4 -111 19 -49 25 -55 67 -69 25 -8 79
-26 120 -40 41 -14 96 -31 122 -38 l48 -11 -20 -28 c-11 -16 -20 -33 -20 -38
0 -5 -7 -12 -15 -16 -8 -3 -15 -15 -15 -26 0 -11 -4 -20 -9 -20 -9 0 -20 -46
-26 -106 -4 -35 26 -74 74 -95 42 -19 42 -36 4 -97 -32 -51 -41 -106 -20 -119
4 -2 -13 -33 -38 -68 -25 -35 -45 -68 -45 -74 0 -6 -4 -11 -9 -11 -5 0 -15
-22 -22 -50 -7 -27 -17 -50 -22 -50 -4 0 -5 -9 -2 -20 4 -13 1 -22 -9 -26 -17
-6 -23 -54 -7 -54 5 0 13 -9 16 -20 3 -11 15 -20 26 -20 10 0 19 -4 19 -10 0
-17 52 -37 103 -39 17 -1 16 -4 -7 -32 -14 -17 -26 -34 -26 -37 1 -14 66 -82
79 -82 6 0 10 -3 8 -7 -6 -10 111 -9 140 0 18 7 23 2 38 -37 9 -24 14 -49 10
-55 -3 -6 -3 -16 1 -23 4 -6 7 -32 7 -57 -1 -33 5 -54 21 -73 21 -26 96 -64
96 -49 0 14 54 -1 85 -24 27 -20 50 -31 65 -33 3 0 18 -6 35 -12 16 -6 48 -14
70 -17 31 -4 48 -15 79 -50 22 -24 60 -54 85 -66 25 -11 49 -26 53 -31 4 -6 8
-7 8 -2 0 5 6 4 13 -2 6 -6 40 -17 75 -26 60 -16 64 -16 115 5 87 35 98 42
113 71 8 15 28 35 44 43 17 9 30 19 30 23 0 10 61 46 82 48 9 0 19 -5 22 -12
3 -8 12 -14 21 -14 8 0 15 -6 16 -12 0 -7 2 -22 5 -33 2 -11 6 -48 8 -82 3
-34 8 -87 11 -118 l7 -55 77 -23 76 -24 76 20 c70 19 77 23 91 57 9 20 21 62
27 94 6 31 17 64 26 72 8 9 15 13 15 9 0 -3 25 10 55 30 31 19 60 35 66 35 6
0 8 4 4 9 -3 5 4 12 15 16 21 7 85 108 96 150 5 21 10 24 33 18 14 -4 34 -7
43 -7 9 0 14 -4 11 -9 -3 -4 18 -7 46 -5 28 2 51 6 51 11 0 4 8 7 19 7 10 0
24 7 31 15 7 8 17 12 23 8 6 -3 7 -1 3 5 -4 7 -2 12 4 12 7 0 10 7 7 15 -4 8
-1 17 4 21 6 3 9 18 6 31 -6 31 18 60 88 110 51 37 77 66 83 93 7 31 11 66 13
110 1 25 6 53 11 62 12 25 17 78 7 84 -16 9 3 32 32 38 36 7 58 52 52 105 -3
26 -16 47 -49 78 -24 23 -44 46 -44 51 0 4 30 5 68 1 37 -4 103 -10 147 -14
89 -7 119 -10 219 -20 73 -7 126 6 126 31 0 8 4 14 8 14 7 0 38 113 46 168 2
9 -3 36 -11 58 l-14 41 -194 52 c-106 29 -199 54 -207 55 -7 2 -20 6 -28 9 -8
3 -39 11 -67 17 -47 11 -52 14 -42 31 5 10 7 19 4 19 -3 0 -1 9 5 19 7 14 6
26 -3 44 -23 44 -116 152 -147 170 -16 10 -30 21 -30 25 1 4 23 32 50 61 27
30 65 86 84 124 34 66 36 74 36 171 0 55 -4 117 -10 136 -5 19 -12 51 -15 70
-7 49 -86 198 -161 306 -60 87 -68 94 -163 148 -89 51 -133 70 -191 81 -10 2
-62 39 -116 82 -178 142 -172 139 -402 203 -83 23 -126 30 -185 28 -43 -1 -78
-3 -80 -4z"/>
</g>
</svg>
